PathFileType	4	(X/Y/Z)	C:\Users\86182\Documents\cortex\Trimmed_M3_L1.trc
DataRate	CameraRate	NumFrames	NumMarkers	Units	OrigDataRate	OrigDataStartFrame	OrigNumFrames
100.00	100.00	       112	2	mm	100.00	721	       901
Frame#	Time	gripper			box			
		X1	Y1	Z1	X2	Y2	Z2	

721	7.200	273.33566	149.79495	292.98834	274.98111	147.88115	157.12801	
722	7.210	273.31610	149.78906	292.96524	275.00491	147.85542	157.13428	
723	7.220	273.29819	149.80537	292.99454	275.02792	147.86409	157.12683	
724	7.230	273.33545	149.78903	292.96457	275.01004	147.87608	157.14032	
725	7.240	273.28290	149.79518	292.98184	274.99438	147.87486	157.13487	
726	7.250	273.30588	149.79793	292.97736	275.01462	147.87306	157.11545	
727	7.260	273.29950	149.81543	293.00543	275.01334	147.86626	157.11131	
728	7.270	273.31876	149.81104	292.98819	274.98999	147.89093	157.11319	
729	7.280	273.25879	149.81189	292.96100	274.99701	147.88841	157.11815	
730	7.290	273.33878	149.82379	293.00687	274.99835	147.88815	157.11972	
731	7.300	273.30228	149.81375	292.95322	275.00049	147.88811	157.13104	
732	7.310	273.29279	149.80943	292.93723	275.00323	147.85457	157.10114	
733	7.320	273.34784	149.81110	292.94614	274.99969	147.86845	157.13104	
734	7.330	273.28317	149.81360	292.94513	275.00293	147.88936	157.10159	
735	7.340	273.27310	149.81012	292.98627	275.02811	147.87888	157.09447	
736	7.350	273.32840	149.79051	292.96820	274.98715	147.86600	157.11047	
737	7.360	273.34146	149.79286	292.98035	274.99939	147.85718	157.11171	
738	7.370	273.32889	149.82237	292.99261	274.99792	147.85307	157.10291	
739	7.380	273.35037	149.79851	292.98294	275.00354	147.87730	157.10538	
740	7.390	273.35486	149.80138	292.97192	274.98730	147.87622	157.11201	
741	7.400	273.33676	149.79601	292.99158	274.99539	147.87752	157.14064	
742	7.410	273.36401	149.79779	292.98856	275.00879	147.90735	157.11403	
743	7.420	273.36041	149.81039	292.97711	274.98550	147.89775	157.12775	
744	7.430	273.36740	149.81946	292.97400	275.03723	147.87892	157.10361	
745	7.440	273.33487	149.80235	292.93997	274.99832	147.88541	157.15776	
746	7.450	273.36877	149.80014	292.94113	275.01489	147.87643	157.10771	
747	7.460	273.32388	149.82562	292.98431	275.07953	147.88109	157.06241	
748	7.470	273.34311	149.80688	292.92819	275.06598	147.90564	157.06754	
749	7.480	273.34262	149.79616	292.93790	275.02454	147.85805	157.08928	
750	7.490	273.33554	149.80614	292.92899	275.01379	147.90475	157.10509	
751	7.500	273.28433	149.79036	292.95023	275.00732	147.86346	157.10695	
752	7.510	273.33713	149.77533	292.93399	275.00790	147.86478	157.11307	
753	7.520	273.30905	149.80571	292.97375	274.99792	147.85307	157.10291	
754	7.530	273.36050	149.78714	292.97928	274.97626	147.87907	157.11815	
755	7.540	273.35876	149.80312	293.01071	274.98431	147.87926	157.12903	
756	7.550	273.33862	149.79765	292.99945	275.00317	147.83727	157.11111	
757	7.560	273.31335	149.79843	292.97900	275.01245	147.85728	157.11208	
758	7.570	273.38235	149.79929	292.99619	275.05472	147.88762	157.10381	
759	7.580	273.36816	149.81091	292.96655	275.02200	147.89746	157.09779	
760	7.590	273.32184	149.82927	292.94254	275.03015	147.88692	157.10796	
761	7.600	273.35150	149.81526	292.95718	275.05060	147.86636	157.08890	
762	7.610	273.33682	149.80107	292.95624	275.04990	147.87669	157.07635	
763	7.620	273.35229	149.81914	292.97247	275.01245	147.90492	157.10350	
764	7.630	273.32458	149.81607	292.95740	275.05371	147.90733	157.09236	
765	7.640	273.29620	149.80426	292.98953	274.97989	147.89378	157.13904	
766	7.650	273.30820	149.80482	292.95801	274.98932	147.88641	157.13335	
767	7.660	273.32315	149.79662	292.96539	274.98584	147.88327	157.13776	
768	7.670	273.27072	149.81122	292.99411	275.00168	147.88142	157.14789	
769	7.680	273.31375	149.80109	292.99063	274.96524	147.90224	157.14258	
770	7.690	273.31848	149.79543	293.00449	274.98407	147.89894	157.16176	
771	7.700	273.36096	149.80020	293.00754	274.99222	147.87943	157.13968	
772	7.710	273.31937	149.79985	292.97845	275.00183	147.90987	157.15485	
773	7.720	273.31369	149.79871	292.96747	274.99634	147.88019	157.14638	
774	7.730	273.35519	149.80293	292.96658	274.96600	147.93091	157.16606	
775	7.740	273.36047	149.79738	292.94138	274.99564	147.89333	157.13930	
776	7.750	273.42422	149.81636	292.96762	275.03128	147.91798	157.12732	
777	7.760	273.39490	149.83698	292.96475	275.00497	147.88326	157.12852	
778	7.770	273.42282	149.81989	292.93893	275.05576	147.89030	157.07817	
779	7.780	273.40097	149.82802	292.95847	275.02948	147.87967	157.12933	
780	7.790	273.34726	149.79462	292.96771	274.97516	147.92990	157.14496	
781	7.800	273.37793	149.82127	292.99231	274.98306	147.89632	157.15604	
782	7.810	273.35428	149.79663	292.99731	274.96790	147.91853	157.17349	
783	7.820	273.26318	149.80214	292.98566	274.99152	147.90482	157.13850	
784	7.830	273.33224	149.80319	293.01300	274.98776	147.89828	157.16550	
785	7.840	273.32782	149.79214	292.98856	274.98688	147.88589	157.14354	
786	7.850	273.33487	149.80531	292.98706	274.97168	147.91782	157.17723	
787	7.860	273.34421	149.80569	293.01886	274.97012	147.90419	157.15230	
788	7.870	273.30850	149.80536	293.00729	274.97641	147.91968	157.18658	
789	7.880	273.32736	149.81371	292.96173	274.95090	147.92741	157.16611	
790	7.890	273.34103	149.79663	292.99753	274.99582	147.88950	157.14420	
791	7.900	273.35742	149.80327	292.96332	274.99142	147.90572	157.12268	
792	7.910	273.32559	149.79498	292.98080	275.00690	147.92160	157.12634	
793	7.920	273.38821	149.82506	292.98376	275.00717	147.91599	157.12030	
794	7.930	273.32227	149.80881	292.93842	275.03836	147.89925	157.13097	
795	7.940	273.33759	149.80553	292.98685	274.95944	147.92702	157.16539	
796	7.950	273.34955	149.79973	292.95996	275.01788	147.93178	157.13303	
797	7.960	273.35962	149.81726	293.00620	275.01846	147.88840	157.12675	
798	7.970	273.34061	149.79025	292.97250	274.99609	147.89636	157.15630	
799	7.980	273.31134	149.79710	292.96390	274.97293	147.89099	157.13380	
800	7.990	273.33768	149.79971	293.00665	275.00821	147.85851	157.14200	
801	8.000	273.32504	149.79376	292.97409	274.99121	147.87677	157.13391	
802	8.010	273.33307	149.79601	292.97568	274.99173	147.87810	157.13680	
803	8.020	273.33188	149.79974	292.99109	275.01224	147.88651	157.15524	
804	8.030	273.32523	149.78801	292.97684	274.98547	147.87196	157.11829	
805	8.040	273.35138	149.78813	292.96368	275.02252	147.91145	157.11246	
806	8.050	273.36841	149.81715	293.00290	274.98630	147.92447	157.13022	
807	8.060	273.38147	149.82933	292.95941	275.03122	147.91466	157.09431	
808	8.070	273.37454	149.80179	292.98801	274.96249	147.89558	157.12784	
809	8.080	273.34271	149.83040	292.98480	275.00449	147.87131	157.12500	
810	8.090	273.27737	149.78835	292.95850	274.98984	147.86276	157.10857	
811	8.100	273.34781	149.80501	292.99344	274.98965	147.87880	157.10956	
812	8.110	273.34619	149.82462	292.99496	275.00812	147.87607	157.12918	
813	8.120	273.33823	149.81177	292.96829	274.99054	147.87378	157.12231	
814	8.130	273.33221	149.81042	293.01416	274.99792	147.85307	157.10291	
815	8.140	273.31894	149.81139	293.02289	275.01093	147.88422	157.11212	
816	8.150	273.32776	149.80186	292.98215	275.01389	147.87631	157.12857	
817	8.160	273.33295	149.80496	293.01041	274.98956	147.88263	157.14159	
818	8.170	273.33240	149.79630	293.00192	274.96445	147.88660	157.12488	
819	8.180	273.33676	149.79770	293.00174	275.01990	147.89058	157.11464	
820	8.190	273.33109	149.80243	293.00278	275.01669	147.90588	157.11279	
821	8.200	273.33554	149.80222	292.99646	275.00226	147.89452	157.13258	
822	8.210	273.31357	149.81015	292.98969	275.00757	147.92361	157.10764	
823	8.220	273.36099	149.82111	292.97861	275.00916	147.89896	157.10611	
824	8.230	273.36172	149.81381	292.97791	275.06967	147.88359	157.07039	
825	8.240	273.29980	149.81596	292.95593	275.01437	147.92668	157.11859	
826	8.250	273.34808	149.82164	292.99741	275.00046	147.91283	157.15506	
827	8.260	273.33142	149.81467	292.99728	274.98535	147.88191	157.13483	
828	8.270	273.34152	149.81285	292.98221	274.99173	147.87810	157.13680	
829	8.280	273.33841	149.81070	293.01523	274.99210	147.88922	157.15593	
830	8.290	273.31104	149.81201	293.01437	275.00067	147.87112	157.13684	
831	8.300	273.32257	149.80298	292.99054	274.96030	147.91016	157.14946	
832	8.310	273.31076	149.81696	293.02417	274.99969	147.88440	157.13530	
